<svg class="svg-icon" style="width: 1em; height: 1em;vertical-align: middle;fill: currentColor;overflow: hidden;" viewBox="0 0 1024 1024" version="1.1" xmlns="http://www.w3.org/2000/svg"><path d="M512 512m-414 0a414 414 0 1 0 828 0 414 414 0 1 0-828 0Z" fill="#F0C48A" /><path d="M13.6 149H1012v66H13.6z" fill="#FD919E" /><path d="M952.4 151.4h59.4v71.2h-59.4z" fill="#E8677D" /><path d="M898.2 1015H132c-68.2 0-123.4-55.2-123.4-123.4v-141.4h1013.2v141.4c-0.2 68.2-55.4 123.4-123.6 123.4z" fill="#FFFFFF" /><path d="M946.6 1011.4c29.2-12.8 52.6-36.6 64.8-66v-191.6h-64.8v257.6z" fill="#D3E6F8" /><path d="M1000 760.8H23.6c-6.6 0-11.8-5.4-11.8-11.8s5.4-11.8 11.8-11.8H1000c6.6 0 11.8 5.4 11.8 11.8s-5.2 11.8-11.8 11.8zM1012.2 163.4H13.6C7 163.4 1.8 158 1.8 151.6c0-6.6 5.4-11.8 11.8-11.8H1012c6.6 0 11.8 5.4 11.8 11.8 0.2 6.4-5.2 11.8-11.6 11.8zM1012.2 226.8H13.6c-6.6 0-11.8-5.4-11.8-11.8 0-6.6 5.4-11.8 11.8-11.8H1012c6.6 0 11.8 5.4 11.8 11.8 0.2 6.6-5.2 11.8-11.6 11.8z" fill="#4C4372" /><path d="M612 340H412V118.6c0-24.2 19.6-44 44-44h112c24.2 0 44 19.6 44 44V340z" fill="#D3E6F8" /><path d="M616.6 341.8h-60.2V65.4c33.2 0 60.2 27 60.2 60.2v216.2z" fill="#A4CFF2" /><path d="M517.4 468.2h-10.8L467.4 426v-86h89.2v86z" fill="#7BABF1" /><path d="M316.8 853.8l195.2 112.8V741l-190.8-108z" fill="#FD919E" /><path d="M707.2 853.8L512 966.6V741l190.8-108z" fill="#A4CFF2" /><path d="M678.8 644.8v222.6l28.4-19.6-4.4-214.8z" fill="#7BABF1" /><path d="M323 621.8s1.8 11.2 8.8 15.2c7 4 170.4 99.2 170.4 99.2h24l170-103.2 5.8-11.2-181.6-101.2h-16.8l-180.6 101.2z" fill="#D3E6F8" /><path d="M485.8 530.8l193 114 23.2-23-181.6-101.2c0-0.2-24.6 4.4-34.6 10.2z" fill="#A4CFF2" /><path d="M512 978.4c-2 0-4-0.6-6-1.6L310.8 864c-3.6-2.2-6-6-6-10.2V628.4c0-4.2 2.2-8.2 6-10.2l195.2-112.8c3.6-2.2 8.2-2.2 11.8 0l195.2 112.8c3.6 2.2 6 6 6 10.2v225.4c0 4.2-2.2 8.2-6 10.2L518 976.8c-2 1.2-4 1.6-6 1.6z m-183.4-131.4l183.4 105.8 183.4-105.8V635.2l-183.4-106-183.4 105.8v212z" fill="#4C4372" /><path d="M512 753c-4.2 0-8-2.2-10.2-6-3.2-5.6-1.4-13 4.4-16.2l195.2-112.8c5.6-3.2 13-1.4 16.2 4.4 3.2 5.6 1.4 13-4.4 16.2L518 751.4c-2 1-4 1.6-6 1.6z" fill="#4C4372" /><path d="M512 978.4c-6.6 0-11.8-5.4-11.8-11.8V748l-189.4-109.4c-5.6-3.2-7.6-10.6-4.4-16.2 3.2-5.6 10.6-7.6 16.2-4.4l195.2 112.8c3.6 2.2 6 6 6 10.2v225.4c0 6.8-5.2 12-11.8 12z" fill="#4C4372" /><path d="M612 351.8H412c-6.6 0-11.8-5.4-11.8-11.8V118.6c0-30.8 25-55.8 55.8-55.8h112c30.8 0 55.8 25 55.8 55.8V340c0 6.6-5.2 11.8-11.8 11.8zM424 328h176V118.6c0-17.6-14.4-32-32-32h-112c-17.6 0-32 14.4-32 32V328z" fill="#4C4372" /><path d="M517.4 480h-10.8c-3.4 0-6.4-1.4-8.8-3.8L458.8 434c-2-2.2-3.2-5-3.2-8v-86c0-6.6 5.4-11.8 11.8-11.8h89c6.6 0 11.8 5.4 11.8 11.8v86c0 3-1.2 5.8-3.2 8L526 476.2c-2.2 2.4-5.2 3.8-8.6 3.8z m-5.6-23.6h0.4l32.4-35v-69.6h-65.2v69.6l32.4 35z" fill="#4C4372" /><path d="M612 250.6h-196.6c-6.6 0-11.8-5.4-11.8-11.8 0-6.6 5.4-11.8 11.8-11.8H612c6.6 0 11.8 5.4 11.8 11.8 0 6.6-5.2 11.8-11.8 11.8z" fill="#4C4372" /><path d="M916.8 1024H107.2C48.2 1024 0 975.8 0 916.8V107.2C0 48.2 48.2 0 107.2 0h809.4C975.8 0 1024 48.2 1024 107.2v809.4c0 59.2-48.2 107.4-107.2 107.4zM107.2 23.8c-46 0-83.6 37.4-83.6 83.6v809.4c0 46 37.4 83.6 83.6 83.6h809.4c46 0 83.6-37.4 83.6-83.6V107.2c0-46-37.4-83.6-83.6-83.6H107.2z" fill="#4C4372" /></svg>