<svg class="svg-icon" style="width: 1em; height: 1em;vertical-align: middle;fill: currentColor;overflow: hidden;" viewBox="0 0 1024 1024" version="1.1" xmlns="http://www.w3.org/2000/svg"><path d="M888.24 352.96c4.24 13.16 16.6 22.72 31.16 22.72h23.3c18.04 0 32.72-14.68 32.72-32.72 0-18.06-14.68-32.74-32.72-32.74H919.4c-14.56 0-26.92 9.56-31.16 22.74h-65.28v-64.52h65.28c4.24 13.16 16.6 22.72 31.16 22.72h23.3c18.04 0 32.72-14.68 32.72-32.72 0-18.06-14.68-32.74-32.72-32.74H919.4c-14.56 0-26.92 9.56-31.16 22.74h-65.28v-37.4c0-5.52-4.48-10-10-10h-37.4V135.76c13.18-4.24 22.74-16.58 22.74-31.14V81.3c0-18.04-14.68-32.72-32.74-32.72-18.04 0-32.72 14.68-32.72 32.72v23.32c0 14.54 9.56 26.9 22.72 31.14v65.28h-64.52V135.76c13.16-4.22 22.74-16.58 22.74-31.14V81.3c0-18.04-14.7-32.72-32.74-32.72-18.04 0-32.72 14.68-32.72 32.72v23.32c0 14.54 9.56 26.9 22.72 31.14v65.28h-64.52V135.76c13.16-4.24 22.74-16.58 22.74-31.14V81.3c0-18.04-14.7-32.72-32.74-32.72s-32.72 14.68-32.72 32.72v23.32c0 14.54 9.56 26.9 22.72 31.14v65.28H522V135.76c13.16-4.24 22.74-16.6 22.74-31.14V81.3c0-18.04-14.7-32.72-32.74-32.72-18.06 0-32.74 14.68-32.74 32.72v23.32c0 14.56 9.56 26.9 22.74 31.14v65.28h-64.52V135.76c13.16-4.24 22.72-16.6 22.72-31.14V81.3c0-18.04-14.68-32.72-32.72-32.72-18.06 0-32.74 14.68-32.74 32.72v23.32c0 14.56 9.56 26.9 22.74 31.14v65.28h-64.52V135.76c13.16-4.24 22.72-16.6 22.72-31.14V81.3c0-18.04-14.68-32.72-32.72-32.72-18.06 0-32.74 14.68-32.74 32.72v23.32c0 14.56 9.56 26.92 22.74 31.14v65.28h-64.52V135.76c13.16-4.24 22.72-16.6 22.72-31.14V81.3c0-18.04-14.68-32.72-32.72-32.72-18.06 0-32.74 14.68-32.74 32.72v23.32c0 14.56 9.56 26.92 22.74 31.14v65.28h-37.4c-5.52 0-10 4.48-10 10v37.4H135.76c-4.22-13.18-16.58-22.74-31.14-22.74H81.3c-18.04 0-32.72 14.68-32.72 32.74 0 18.04 14.68 32.72 32.72 32.72h23.32c14.54 0 26.9-9.56 31.14-22.72h65.28v64.52H135.76c-4.24-13.18-16.58-22.74-31.14-22.74H81.3c-18.04 0-32.72 14.68-32.72 32.74 0 18.04 14.68 32.72 32.72 32.72h23.32c14.54 0 26.9-9.56 31.14-22.72h65.28v64.52H135.76c-4.24-13.16-16.58-22.74-31.14-22.74H81.3c-18.04 0-32.72 14.7-32.72 32.74s14.68 32.72 32.72 32.72h23.32c14.54 0 26.9-9.56 31.14-22.72h65.28V502H135.76c-4.24-13.18-16.58-22.74-31.14-22.74H81.3c-18.04 0-32.72 14.7-32.72 32.74s14.68 32.74 32.72 32.74h23.32c14.56 0 26.9-9.56 31.14-22.74h65.28v64.52H135.76c-4.24-13.16-16.6-22.74-31.14-22.74H81.3c-18.04 0-32.72 14.7-32.72 32.74 0 18.06 14.68 32.74 32.72 32.74h23.32c14.56 0 26.9-9.56 31.14-22.74h65.28v64.52H135.76c-4.24-13.16-16.6-22.72-31.14-22.72H81.3c-18.04 0-32.72 14.68-32.72 32.72s14.68 32.74 32.72 32.74h23.32c14.56 0 26.92-9.58 31.14-22.74h65.28v64.52H135.76c-4.24-13.16-16.6-22.72-31.14-22.72H81.3c-18.04 0-32.72 14.68-32.72 32.72 0 18.06 14.68 32.74 32.72 32.74h23.32c14.56 0 26.92-9.56 31.14-22.74h65.28v37.4c0 5.52 4.48 10 10 10h37.4v65.28c-13.18 4.24-22.74 16.6-22.74 31.16v23.3c0 18.04 14.68 32.72 32.74 32.72 18.04 0 32.72-14.68 32.72-32.72V919.4c0-14.56-9.56-26.92-22.72-31.16v-65.28h64.52v65.28c-13.18 4.24-22.74 16.6-22.74 31.16v23.3c0 18.04 14.68 32.72 32.74 32.72 18.04 0 32.72-14.68 32.72-32.72V919.4c0-14.56-9.56-26.92-22.72-31.16v-65.28h64.52v65.28c-13.18 4.24-22.74 16.6-22.74 31.16v23.3c0 18.04 14.68 32.72 32.74 32.72 18.04 0 32.72-14.68 32.72-32.72V919.4c0-14.56-9.56-26.92-22.72-31.16v-65.28H502v65.28c-13.18 4.24-22.74 16.6-22.74 31.16v23.3c0 18.04 14.68 32.72 32.74 32.72 18.04 0 32.74-14.68 32.74-32.72V919.4c0-14.56-9.58-26.92-22.74-31.16v-65.28h64.52v65.28c-13.16 4.24-22.72 16.6-22.72 31.16v23.3c0 18.04 14.68 32.72 32.72 32.72s32.74-14.68 32.74-32.72V919.4c0-14.56-9.58-26.92-22.74-31.16v-65.28h64.52v65.28c-13.16 4.24-22.72 16.6-22.72 31.16v23.3c0 18.04 14.68 32.72 32.72 32.72s32.74-14.68 32.74-32.72V919.4c0-14.56-9.58-26.92-22.74-31.16v-65.28h64.52v65.28c-13.16 4.24-22.72 16.6-22.72 31.16v23.3c0 18.04 14.68 32.72 32.72 32.72 18.06 0 32.74-14.68 32.74-32.72V919.4c0-14.56-9.56-26.92-22.74-31.16v-65.28h37.4c5.52 0 10-4.48 10-10v-37.4h65.28c4.24 13.18 16.6 22.74 31.16 22.74h23.3c18.04 0 32.72-14.68 32.72-32.74 0-18.04-14.68-32.72-32.72-32.72H919.4c-14.56 0-26.92 9.56-31.16 22.72h-65.28v-64.52h65.28c4.24 13.16 16.6 22.74 31.16 22.74h23.3c18.04 0 32.72-14.7 32.72-32.74 0-18.04-14.68-32.72-32.72-32.72H919.4c-14.56 0-26.92 9.56-31.16 22.72h-65.28v-64.52h65.28c4.24 13.18 16.6 22.74 31.16 22.74h23.3c18.04 0 32.72-14.68 32.72-32.74 0-18.04-14.68-32.74-32.72-32.74H919.4c-14.56 0-26.92 9.58-31.16 22.74h-65.28V522h65.28c4.24 13.18 16.6 22.74 31.16 22.74h23.3c18.04 0 32.72-14.7 32.72-32.74s-14.68-32.74-32.72-32.74H919.4c-14.56 0-26.92 9.56-31.16 22.74h-65.28v-64.52h65.28c4.24 13.16 16.6 22.72 31.16 22.72h23.3c18.04 0 32.72-14.68 32.72-32.72s-14.68-32.74-32.72-32.74H919.4c-14.56 0-26.92 9.58-31.16 22.74h-65.28v-64.52h65.28z m31.16-22.74h23.3c7.02 0 12.72 5.72 12.72 12.74s-5.7 12.72-12.72 12.72H919.4c-7.02 0-12.74-5.7-12.74-12.72s5.72-12.74 12.74-12.74z m0-84.52h23.3c7.02 0 12.72 5.72 12.72 12.74 0 7.02-5.7 12.72-12.72 12.72H919.4c-7.02 0-12.74-5.7-12.74-12.72a12.76 12.76 0 0 1 12.74-12.74z m-802.06 12.74v0.02c0 7-5.72 12.7-12.72 12.7H81.3c-7.02 0-12.72-5.7-12.72-12.72 0-7.02 5.7-12.74 12.72-12.74h23.32c7 0 12.72 5.7 12.72 12.72v0.02z m0 84.52v0.02c0 7-5.72 12.7-12.72 12.7H81.3c-7.02 0-12.72-5.7-12.72-12.72s5.7-12.74 12.72-12.74h23.32c7 0 12.72 5.72 12.72 12.72v0.02z m0 84.52v0.02c0 7-5.72 12.7-12.72 12.7H81.3c-7.02 0-12.72-5.7-12.72-12.72s5.7-12.74 12.72-12.74h23.32c7 0 12.72 5.72 12.72 12.72v0.02z m0 84.52v0.02c0 7-5.72 12.72-12.72 12.72H81.3c-7.02 0-12.72-5.72-12.72-12.74s5.7-12.74 12.72-12.74h23.32c7 0 12.72 5.72 12.72 12.72v0.02z m0 84.52v0.02c0 7-5.72 12.72-12.72 12.72H81.3c-7.02 0-12.72-5.72-12.72-12.74s5.7-12.74 12.72-12.74h23.32c7 0 12.72 5.72 12.72 12.72v0.02z m0 84.52v0.02c0 7-5.72 12.72-12.72 12.72H81.3c-7.02 0-12.72-5.72-12.72-12.74s5.7-12.72 12.72-12.72h23.32c7 0 12.72 5.7 12.72 12.7v0.02z m0 84.52v0.02c0 7.02-5.72 12.72-12.72 12.72H81.3c-7.02 0-12.72-5.72-12.72-12.74 0-7.02 5.7-12.72 12.72-12.72h23.32c7 0 12.72 5.7 12.72 12.7v0.02zM752.84 104.62V81.3c0-7.02 5.7-12.72 12.72-12.72 7.02 0 12.74 5.7 12.74 12.72v23.32c0 7-5.7 12.72-12.72 12.72h-0.02-0.02c-7 0-12.7-5.72-12.7-12.72z m-84.52 0V81.3c0-7.02 5.7-12.72 12.72-12.72s12.74 5.7 12.74 12.72v23.32c0 7-5.72 12.72-12.72 12.72h-0.02-0.02c-7 0-12.7-5.72-12.7-12.72z m-84.52 0V81.3c0-7.02 5.7-12.72 12.72-12.72s12.74 5.7 12.74 12.72v23.32c0 7-5.72 12.72-12.72 12.72h-0.02-0.02c-7 0-12.7-5.72-12.7-12.72z m-84.54 0V81.3c0-7.02 5.72-12.72 12.74-12.72s12.74 5.7 12.74 12.72v23.32c0 7-5.72 12.72-12.72 12.72H512h-0.02c-7 0-12.72-5.72-12.72-12.72z m-84.52 0V81.3c0-7.02 5.72-12.72 12.74-12.72s12.72 5.7 12.72 12.72v23.32c0 7-5.7 12.72-12.7 12.72h-0.02-0.02c-7 0-12.72-5.72-12.72-12.72z m-84.52 0V81.3c0-7.02 5.72-12.72 12.74-12.72s12.72 5.7 12.72 12.72v23.32c0 7-5.7 12.72-12.7 12.72h-0.02-0.02c-7.02 0-12.72-5.72-12.72-12.72z m-84.52 0V81.3c0-7.02 5.72-12.72 12.74-12.72 7.02 0 12.72 5.7 12.72 12.72v23.32c0 7-5.7 12.72-12.7 12.72h-0.02-0.02c-7.02 0-12.72-5.72-12.72-12.72z m25.46 814.78v23.3c0 7.02-5.7 12.72-12.72 12.72-7.02 0-12.74-5.7-12.74-12.72V919.4a12.76 12.76 0 0 1 12.74-12.74c7.02 0 12.72 5.72 12.72 12.74z m84.52 0v23.3c0 7.02-5.7 12.72-12.72 12.72s-12.74-5.7-12.74-12.72V919.4c0-7.02 5.72-12.74 12.74-12.74s12.72 5.72 12.72 12.74z m84.52 0v23.3c0 7.02-5.7 12.72-12.72 12.72s-12.74-5.7-12.74-12.72V919.4c0-7.02 5.72-12.74 12.74-12.74s12.72 5.72 12.72 12.74z m84.54 0v23.3c0 7.02-5.72 12.72-12.74 12.72s-12.74-5.7-12.74-12.72V919.4c0-7.02 5.72-12.74 12.74-12.74s12.74 5.72 12.74 12.74z m84.52 0v23.3c0 7.02-5.72 12.72-12.74 12.72s-12.72-5.7-12.72-12.72V919.4c0-7.02 5.7-12.74 12.72-12.74s12.74 5.72 12.74 12.74z m84.52 0v23.3c0 7.02-5.72 12.72-12.74 12.72s-12.72-5.7-12.72-12.72V919.4c0-7.02 5.7-12.74 12.72-12.74s12.74 5.72 12.74 12.74z m84.52 0v23.3c0 7.02-5.72 12.72-12.74 12.72-7.02 0-12.72-5.7-12.72-12.72V919.4c0-7.02 5.7-12.74 12.72-12.74a12.76 12.76 0 0 1 12.74 12.74z m24.66-116.44H221.04V221.04h581.92v581.92z m116.44-50.12h23.3c7.02 0 12.72 5.7 12.72 12.72 0 7.02-5.7 12.74-12.72 12.74H919.4a12.76 12.76 0 0 1-12.74-12.74c0-7.02 5.72-12.72 12.74-12.72z m0-84.52h23.3c7.02 0 12.72 5.7 12.72 12.72s-5.7 12.74-12.72 12.74H919.4c-7.02 0-12.74-5.72-12.74-12.74s5.72-12.72 12.74-12.72z m0-84.54h23.3c7.02 0 12.72 5.72 12.72 12.74s-5.7 12.74-12.72 12.74H919.4c-7.02 0-12.74-5.72-12.74-12.74s5.72-12.74 12.74-12.74z m0-84.52h23.3c7.02 0 12.72 5.72 12.72 12.74s-5.7 12.74-12.72 12.74H919.4c-7.02 0-12.74-5.72-12.74-12.74s5.72-12.74 12.74-12.74z m0-84.52h23.3c7.02 0 12.72 5.72 12.72 12.74s-5.7 12.72-12.72 12.72H919.4c-7.02 0-12.74-5.7-12.74-12.72s5.72-12.74 12.74-12.74z" fill="#23130D" /><path d="M117.34 258.42v0.04c0 7-5.72 12.7-12.72 12.7H81.3c-7.02 0-12.72-5.7-12.72-12.72 0-7.02 5.7-12.74 12.72-12.74h23.32c7 0 12.72 5.7 12.72 12.72zM117.34 342.94v0.04c0 7-5.72 12.7-12.72 12.7H81.3c-7.02 0-12.72-5.7-12.72-12.72s5.7-12.74 12.72-12.74h23.32c7 0 12.72 5.72 12.72 12.72zM117.34 427.46v0.04c0 7-5.72 12.7-12.72 12.7H81.3c-7.02 0-12.72-5.7-12.72-12.72s5.7-12.74 12.72-12.74h23.32c7 0 12.72 5.72 12.72 12.72zM117.34 511.98v0.04c0 7-5.72 12.72-12.72 12.72H81.3c-7.02 0-12.72-5.72-12.72-12.74s5.7-12.74 12.72-12.74h23.32c7 0 12.72 5.72 12.72 12.72zM117.34 596.5v0.04c0 7-5.72 12.72-12.72 12.72H81.3c-7.02 0-12.72-5.72-12.72-12.74s5.7-12.74 12.72-12.74h23.32c7 0 12.72 5.72 12.72 12.72zM117.34 681.02v0.04c0 7-5.72 12.72-12.72 12.72H81.3c-7.02 0-12.72-5.72-12.72-12.74s5.7-12.72 12.72-12.72h23.32c7 0 12.72 5.7 12.72 12.7zM117.34 765.54v0.04c0 7.02-5.72 12.72-12.72 12.72H81.3c-7.02 0-12.72-5.72-12.72-12.74 0-7.02 5.7-12.72 12.72-12.72h23.32c7 0 12.72 5.7 12.72 12.7zM778.3 81.3v23.32c0 7-5.7 12.72-12.72 12.72h-0.02-0.02c-7 0-12.7-5.72-12.7-12.72V81.3c0-7.02 5.7-12.72 12.72-12.72 7.02 0 12.74 5.7 12.74 12.72zM693.78 81.3v23.32c0 7-5.72 12.72-12.72 12.72h-0.02-0.02c-7 0-12.7-5.72-12.7-12.72V81.3c0-7.02 5.7-12.72 12.72-12.72s12.74 5.7 12.74 12.72zM609.26 81.3v23.32c0 7-5.72 12.72-12.72 12.72h-0.02-0.02c-7 0-12.7-5.72-12.7-12.72V81.3c0-7.02 5.7-12.72 12.72-12.72s12.74 5.7 12.74 12.72zM524.74 81.3v23.32c0 7-5.72 12.72-12.72 12.72H512h-0.02c-7 0-12.72-5.72-12.72-12.72V81.3c0-7.02 5.72-12.72 12.74-12.72s12.74 5.7 12.74 12.72zM440.2 81.3v23.32c0 7-5.7 12.72-12.7 12.72h-0.02-0.02c-7 0-12.72-5.72-12.72-12.72V81.3c0-7.02 5.72-12.72 12.74-12.72s12.72 5.7 12.72 12.72zM355.68 81.3v23.32c0 7-5.7 12.72-12.7 12.72h-0.02-0.02c-7.02 0-12.72-5.72-12.72-12.72V81.3c0-7.02 5.72-12.72 12.74-12.72s12.72 5.7 12.72 12.72zM271.16 81.3v23.32c0 7-5.7 12.72-12.7 12.72h-0.02-0.02c-7.02 0-12.72-5.72-12.72-12.72V81.3c0-7.02 5.72-12.72 12.74-12.72 7.02 0 12.72 5.7 12.72 12.72zM955.42 258.44c0 7.02-5.7 12.72-12.72 12.72H919.4c-7.02 0-12.74-5.7-12.74-12.72a12.76 12.76 0 0 1 12.74-12.74h23.3c7.02 0 12.72 5.72 12.72 12.74zM955.42 342.96c0 7.02-5.7 12.72-12.72 12.72H919.4c-7.02 0-12.74-5.7-12.74-12.72s5.72-12.74 12.74-12.74h23.3c7.02 0 12.72 5.72 12.72 12.74zM955.42 427.48c0 7.02-5.7 12.72-12.72 12.72H919.4c-7.02 0-12.74-5.7-12.74-12.72s5.72-12.74 12.74-12.74h23.3c7.02 0 12.72 5.72 12.72 12.74zM955.42 512c0 7.02-5.7 12.74-12.72 12.74H919.4c-7.02 0-12.74-5.72-12.74-12.74s5.72-12.74 12.74-12.74h23.3c7.02 0 12.72 5.72 12.72 12.74zM955.42 596.52c0 7.02-5.7 12.74-12.72 12.74H919.4c-7.02 0-12.74-5.72-12.74-12.74s5.72-12.74 12.74-12.74h23.3c7.02 0 12.72 5.72 12.72 12.74zM955.42 681.04c0 7.02-5.7 12.74-12.72 12.74H919.4c-7.02 0-12.74-5.72-12.74-12.74s5.72-12.72 12.74-12.72h23.3c7.02 0 12.72 5.7 12.72 12.72zM955.42 765.56c0 7.02-5.7 12.74-12.72 12.74H919.4a12.76 12.76 0 0 1-12.74-12.74c0-7.02 5.72-12.72 12.74-12.72h23.3c7.02 0 12.72 5.7 12.72 12.72zM778.3 919.4v23.3c0 7.02-5.72 12.72-12.74 12.72-7.02 0-12.72-5.7-12.72-12.72V919.4c0-7.02 5.7-12.74 12.72-12.74a12.76 12.76 0 0 1 12.74 12.74zM693.78 919.4v23.3c0 7.02-5.72 12.72-12.74 12.72s-12.72-5.7-12.72-12.72V919.4c0-7.02 5.7-12.74 12.72-12.74s12.74 5.72 12.74 12.74zM609.26 919.4v23.3c0 7.02-5.72 12.72-12.74 12.72s-12.72-5.7-12.72-12.72V919.4c0-7.02 5.7-12.74 12.72-12.74s12.74 5.72 12.74 12.74zM524.74 919.4v23.3c0 7.02-5.72 12.72-12.74 12.72s-12.74-5.7-12.74-12.72V919.4c0-7.02 5.72-12.74 12.74-12.74s12.74 5.72 12.74 12.74zM440.2 919.4v23.3c0 7.02-5.7 12.72-12.72 12.72s-12.74-5.7-12.74-12.72V919.4c0-7.02 5.72-12.74 12.74-12.74s12.72 5.72 12.72 12.74zM355.68 919.4v23.3c0 7.02-5.7 12.72-12.72 12.72s-12.74-5.7-12.74-12.72V919.4c0-7.02 5.72-12.74 12.74-12.74s12.72 5.72 12.72 12.74zM271.16 919.4v23.3c0 7.02-5.7 12.72-12.72 12.72-7.02 0-12.74-5.7-12.74-12.72V919.4a12.76 12.76 0 0 1 12.74-12.74c7.02 0 12.72 5.72 12.72 12.74z" fill="#F9C139" /><path d="M221.04 221.04v581.92h581.92V221.04H221.04z m469.74 459.74c0 5.52-4.48 10-10 10H343.22c-5.52 0-10-4.48-10-10V343.22c0-5.52 4.48-10 10-10h257.12c0.06 0 0.1 0.02 0.16 0.02 0.6 0 1.18 0.06 1.78 0.18 0.2 0.04 0.38 0.12 0.58 0.16 0.44 0.12 0.86 0.22 1.28 0.4 0.22 0.08 0.42 0.22 0.62 0.32 0.38 0.18 0.76 0.36 1.12 0.6 0.54 0.36 1.06 0.78 1.54 1.24l80.42 80.44c0.48 0.48 0.9 1 1.26 1.54 0.24 0.34 0.4 0.72 0.58 1.06 0.1 0.24 0.24 0.44 0.34 0.68 0.18 0.42 0.28 0.86 0.4 1.28 0.04 0.2 0.12 0.38 0.16 0.58 0.14 0.64 0.2 1.3 0.2 1.94v257.12z" fill="#E1E1E5" /><path d="M792.96 231.04v561.92H231.04V231.04h561.92M343.22 700.78h337.56c11.028 0 20-8.972 20-20V423.66c0-1.378-0.14-2.73-0.418-4.02a11.54 11.54 0 0 0-0.214-0.856v-0.002l-0.112-0.39-0.046-0.168a16.704 16.704 0 0 0-0.762-2.266 12.254 12.254 0 0 0-0.446-0.942l-0.03-0.074-0.216-0.408-0.048-0.098c-0.2-0.402-0.562-1.132-1.126-1.954a20.15 20.15 0 0 0-2.448-2.974l-80.42-80.44-0.076-0.076-0.078-0.074a21.366 21.366 0 0 0-2.91-2.34 16.908 16.908 0 0 0-2.09-1.176 12.334 12.334 0 0 0-1.448-0.696c-0.934-0.384-1.744-0.6-2.24-0.734l-0.156-0.042-0.098-0.026a12.426 12.426 0 0 0-1.152-0.292 18.942 18.942 0 0 0-2.646-0.342l-0.264-0.052H343.22c-11.028 0-20 8.972-20 20v337.56c0 11.03 8.972 20.002 20 20.002m459.74-479.74H221.04v581.92h581.92V221.04zM343.22 690.78c-5.52 0-10-4.48-10-10V343.22c0-5.52 4.48-10 10-10h257.12c0.06 0 0.1 0.02 0.16 0.02 0.6 0 1.18 0.06 1.78 0.18 0.2 0.04 0.38 0.12 0.58 0.16 0.44 0.12 0.86 0.22 1.28 0.4 0.22 0.08 0.42 0.22 0.62 0.32 0.38 0.18 0.76 0.36 1.12 0.6 0.54 0.36 1.06 0.78 1.54 1.24l80.42 80.44c0.48 0.48 0.9 1 1.26 1.54 0.24 0.34 0.4 0.72 0.58 1.06 0.1 0.24 0.24 0.44 0.34 0.68 0.18 0.42 0.28 0.86 0.4 1.28 0.04 0.2 0.12 0.38 0.16 0.58 0.14 0.64 0.2 1.3 0.2 1.94v257.12c0 5.52-4.48 10-10 10H343.22z" opacity=".2" /><path d="M690.58 421.72c-0.04-0.2-0.12-0.38-0.16-0.58-0.12-0.42-0.22-0.86-0.4-1.28-0.1-0.24-0.24-0.44-0.34-0.68-0.18-0.34-0.34-0.72-0.58-1.06-0.36-0.54-0.78-1.06-1.26-1.54l-80.42-80.44c-0.48-0.46-1-0.88-1.54-1.24-0.36-0.24-0.74-0.42-1.12-0.6-0.2-0.1-0.4-0.24-0.62-0.32-0.42-0.18-0.84-0.28-1.28-0.4-0.2-0.04-0.38-0.12-0.58-0.16-0.6-0.12-1.18-0.18-1.78-0.18-0.06 0-0.1-0.02-0.16-0.02H343.22c-5.52 0-10 4.48-10 10v337.56c0 5.52 4.48 10 10 10h337.56c5.52 0 10-4.48 10-10V423.66c0-0.64-0.06-1.3-0.2-1.94z m-19.8 249.06H353.22V353.22H596.2l74.58 74.58v242.98z" fill="#23130D" /><path d="M670.78 427.8v242.98H353.22V353.22H596.2z" fill="#3594BF" /><path d="M592.058 363.22l68.722 68.722V660.78H363.22V363.22h228.838m4.142-10H353.22v317.56h317.56V427.8l-74.58-74.58z" opacity=".2" /><path d="M581.3 670.78H530.4l-177.18-177.16v-50.92zM640.24 670.78h-39.16L353.22 422.9v-39.12zM670.78 595.5v65.06L363.44 353.22h65.06z" fill="#FFFFFF" opacity=".4" /></svg>